<svg width="293" height="74" viewBox="0 0 293 74" fill="none" xmlns="http://www.w3.org/2000/svg">
<path d="M39.4361 23.473V34.89H51.8821V38.565H39.4361V50.325H53.3521V54H34.9771V19.798H53.3521V23.473H39.4361ZM74.1132 54L67.7432 44.004L61.6182 54H56.9632L65.6362 40.672L56.9632 27.148H62.0102L68.3802 37.095L74.4562 27.148H79.1112L70.4872 40.427L79.1602 54H74.1132ZM88.0054 32.097C88.8874 30.5617 90.1941 29.2877 91.9254 28.275C93.6894 27.2297 95.7311 26.707 98.0504 26.707C100.435 26.707 102.591 27.2787 104.518 28.422C106.478 29.5653 108.014 31.1823 109.124 33.273C110.235 35.331 110.79 37.732 110.79 40.476C110.79 43.1873 110.235 45.6047 109.124 47.728C108.014 49.8513 106.478 51.501 104.518 52.677C102.591 53.853 100.435 54.441 98.0504 54.441C95.7638 54.441 93.7384 53.9347 91.9744 52.922C90.2431 51.8767 88.9201 50.5863 88.0054 49.051V66.74H83.5464V27.148H88.0054V32.097ZM106.233 40.476C106.233 38.4507 105.825 36.6867 105.008 35.184C104.192 33.6813 103.081 32.538 101.676 31.754C100.304 30.97 98.7854 30.578 97.1194 30.578C95.4861 30.578 93.9671 30.9863 92.5624 31.803C91.1904 32.587 90.0798 33.7467 89.2304 35.282C88.4138 36.7847 88.0054 38.5323 88.0054 40.525C88.0054 42.5503 88.4138 44.3307 89.2304 45.866C90.0798 47.3687 91.1904 48.5283 92.5624 49.345C93.9671 50.129 95.4861 50.521 97.1194 50.521C98.7854 50.521 100.304 50.129 101.676 49.345C103.081 48.5283 104.192 47.3687 105.008 45.866C105.825 44.3307 106.233 42.534 106.233 40.476ZM121.119 31.509C121.903 29.9737 123.013 28.7813 124.451 27.932C125.921 27.0827 127.701 26.658 129.792 26.658V31.264H128.616C123.618 31.264 121.119 33.9753 121.119 39.398V54H116.66V27.148H121.119V31.509ZM159.439 39.545C159.439 40.3943 159.39 41.2927 159.292 42.24H137.83C137.993 44.886 138.892 46.9603 140.525 48.463C142.191 49.933 144.2 50.668 146.552 50.668C148.479 50.668 150.08 50.227 151.354 49.345C152.661 48.4303 153.575 47.2217 154.098 45.719H158.9C158.181 48.2997 156.744 50.4067 154.588 52.04C152.432 53.6407 149.753 54.441 146.552 54.441C144.004 54.441 141.717 53.8693 139.692 52.726C137.699 51.5827 136.131 49.9657 134.988 47.875C133.845 45.7517 133.273 43.3017 133.273 40.525C133.273 37.7483 133.828 35.3147 134.939 33.224C136.05 31.1333 137.601 29.5327 139.594 28.422C141.619 27.2787 143.939 26.707 146.552 26.707C149.1 26.707 151.354 27.2623 153.314 28.373C155.274 29.4837 156.777 31.019 157.822 32.979C158.9 34.9063 159.439 37.095 159.439 39.545ZM154.833 38.614C154.833 36.9153 154.457 35.4617 153.706 34.253C152.955 33.0117 151.926 32.0807 150.619 31.46C149.345 30.8067 147.924 30.48 146.356 30.48C144.102 30.48 142.175 31.1987 140.574 32.636C139.006 34.0733 138.108 36.066 137.879 38.614H154.833ZM174.831 54.441C172.773 54.441 170.927 54.098 169.294 53.412C167.66 52.6933 166.37 51.7133 165.423 50.472C164.475 49.198 163.953 47.7443 163.855 46.111H168.461C168.591 47.4503 169.212 48.5447 170.323 49.394C171.466 50.2433 172.952 50.668 174.782 50.668C176.48 50.668 177.82 50.2923 178.8 49.541C179.78 48.7897 180.27 47.8423 180.27 46.699C180.27 45.523 179.747 44.6573 178.702 44.102C177.656 43.514 176.039 42.9423 173.851 42.387C171.858 41.8643 170.225 41.3417 168.951 40.819C167.709 40.2637 166.631 39.4633 165.717 38.418C164.835 37.34 164.394 35.9353 164.394 34.204C164.394 32.832 164.802 31.5743 165.619 30.431C166.435 29.2877 167.595 28.3893 169.098 27.736C170.6 27.05 172.315 26.707 174.243 26.707C177.215 26.707 179.616 27.4583 181.446 28.961C183.275 30.4637 184.255 32.5217 184.386 35.135H179.927C179.829 33.7303 179.257 32.6033 178.212 31.754C177.199 30.9047 175.827 30.48 174.096 30.48C172.495 30.48 171.221 30.823 170.274 31.509C169.326 32.195 168.853 33.0933 168.853 34.204C168.853 35.086 169.13 35.821 169.686 36.409C170.274 36.9643 170.992 37.4217 171.842 37.781C172.724 38.1077 173.932 38.4833 175.468 38.908C177.395 39.4307 178.963 39.9533 180.172 40.476C181.38 40.966 182.409 41.7173 183.259 42.73C184.141 43.7427 184.598 45.0657 184.631 46.699C184.631 48.169 184.222 49.492 183.406 50.668C182.589 51.844 181.429 52.775 179.927 53.461C178.457 54.1143 176.758 54.441 174.831 54.441ZM200.431 54.441C198.373 54.441 196.528 54.098 194.894 53.412C193.261 52.6933 191.971 51.7133 191.023 50.472C190.076 49.198 189.553 47.7443 189.455 46.111H194.061C194.192 47.4503 194.813 48.5447 195.923 49.394C197.067 50.2433 198.553 50.668 200.382 50.668C202.081 50.668 203.42 50.2923 204.4 49.541C205.38 48.7897 205.87 47.8423 205.87 46.699C205.87 45.523 205.348 44.6573 204.302 44.102C203.257 43.514 201.64 42.9423 199.451 42.387C197.459 41.8643 195.825 41.3417 194.551 40.819C193.31 40.2637 192.232 39.4633 191.317 38.418C190.435 37.34 189.994 35.9353 189.994 34.204C189.994 32.832 190.403 31.5743 191.219 30.431C192.036 29.2877 193.196 28.3893 194.698 27.736C196.201 27.05 197.916 26.707 199.843 26.707C202.816 26.707 205.217 27.4583 207.046 28.961C208.876 30.4637 209.856 32.5217 209.986 35.135H205.527C205.429 33.7303 204.858 32.6033 203.812 31.754C202.8 30.9047 201.428 30.48 199.696 30.48C198.096 30.48 196.822 30.823 195.874 31.509C194.927 32.195 194.453 33.0933 194.453 34.204C194.453 35.086 194.731 35.821 195.286 36.409C195.874 36.9643 196.593 37.4217 197.442 37.781C198.324 38.1077 199.533 38.4833 201.068 38.908C202.996 39.4307 204.564 39.9533 205.772 40.476C206.981 40.966 208.01 41.7173 208.859 42.73C209.741 43.7427 210.199 45.0657 210.231 46.699C210.231 48.169 209.823 49.492 209.006 50.668C208.19 51.844 207.03 52.775 205.527 53.461C204.057 54.1143 202.359 54.441 200.431 54.441ZM217.947 54.294C217.098 54.294 216.379 54 215.791 53.412C215.203 52.824 214.909 52.1053 214.909 51.256C214.909 50.4067 215.203 49.688 215.791 49.1C216.379 48.512 217.098 48.218 217.947 48.218C218.764 48.218 219.45 48.512 220.005 49.1C220.593 49.688 220.887 50.4067 220.887 51.256C220.887 52.1053 220.593 52.824 220.005 53.412C219.45 54 218.764 54.294 217.947 54.294ZM229.215 22.787C228.366 22.787 227.647 22.493 227.059 21.905C226.504 21.317 226.226 20.5983 226.226 19.749C226.226 18.8997 226.504 18.181 227.059 17.593C227.647 17.005 228.366 16.711 229.215 16.711C230.064 16.711 230.767 17.005 231.322 17.593C231.91 18.181 232.204 18.8997 232.204 19.749C232.204 20.5983 231.91 21.317 231.322 21.905C230.767 22.493 230.064 22.787 229.215 22.787ZM231.42 59.831C231.42 62.2157 230.816 63.9633 229.607 65.074C228.398 66.1847 226.634 66.74 224.315 66.74H221.718V62.967H223.58C224.821 62.967 225.687 62.722 226.177 62.232C226.7 61.742 226.961 60.909 226.961 59.733V27.148H231.42V59.831ZM248.474 54.441C246.416 54.441 244.571 54.098 242.937 53.412C241.304 52.6933 240.014 51.7133 239.066 50.472C238.119 49.198 237.596 47.7443 237.498 46.111H242.104C242.235 47.4503 242.856 48.5447 243.966 49.394C245.11 50.2433 246.596 50.668 248.425 50.668C250.124 50.668 251.463 50.2923 252.443 49.541C253.423 48.7897 253.913 47.8423 253.913 46.699C253.913 45.523 253.391 44.6573 252.345 44.102C251.3 43.514 249.683 42.9423 247.494 42.387C245.502 41.8643 243.868 41.3417 242.594 40.819C241.353 40.2637 240.275 39.4633 239.36 38.418C238.478 37.34 238.037 35.9353 238.037 34.204C238.037 32.832 238.446 31.5743 239.262 30.431C240.079 29.2877 241.239 28.3893 242.741 27.736C244.244 27.05 245.959 26.707 247.886 26.707C250.859 26.707 253.26 27.4583 255.089 28.961C256.919 30.4637 257.899 32.5217 258.029 35.135H253.57C253.472 33.7303 252.901 32.6033 251.855 31.754C250.843 30.9047 249.471 30.48 247.739 30.48C246.139 30.48 244.865 30.823 243.917 31.509C242.97 32.195 242.496 33.0933 242.496 34.204C242.496 35.086 242.774 35.821 243.329 36.409C243.917 36.9643 244.636 37.4217 245.485 37.781C246.367 38.1077 247.576 38.4833 249.111 38.908C251.039 39.4307 252.607 39.9533 253.815 40.476C255.024 40.966 256.053 41.7173 256.902 42.73C257.784 43.7427 258.242 45.0657 258.274 46.699C258.274 48.169 257.866 49.492 257.049 50.668C256.233 51.844 255.073 52.775 253.57 53.461C252.1 54.1143 250.402 54.441 248.474 54.441Z" fill="black"/>
</svg>
