<svg width="100" height="100" viewBox="0 0 100 100" fill="none" xmlns="http://www.w3.org/2000/svg">
<path d="M58.499 15.1426C54.634 10.6112 51.3057 6.00895 50.6258 5.0531C50.5542 4.9823 50.4468 4.9823 50.3752 5.0531C49.6952 6.00895 46.367 10.6112 42.5019 15.1426C9.32685 56.9518 47.7269 85.1671 47.7269 85.1671L48.049 85.3796C48.3353 89.7337 49.0511 96 49.0511 96H50.4826H51.9141C51.9141 96 52.6298 89.7692 52.9161 85.3796L53.2382 85.1317C53.274 85.1671 91.6742 56.9518 58.499 15.1426ZM50.4826 84.5298C50.4826 84.5298 48.7648 83.0784 48.2995 82.3351V82.264L50.3752 36.7376C50.3752 36.596 50.59 36.596 50.59 36.7376L52.6656 82.264V82.3351C52.2004 83.0784 50.4826 84.5298 50.4826 84.5298Z" fill="#001E2B"/>
</svg>
