<svg width="205" height="74" viewBox="0 0 205 74" fill="none" xmlns="http://www.w3.org/2000/svg">
<path d="M66.6243 21.738C66.657 21.9993 66.6733 22.4077 66.6733 22.963C66.6733 23.5183 66.6243 24.0247 66.5263 24.482L64.6643 24.629C64.6316 25.5437 64.6153 26.8993 64.6153 28.696C64.6153 36.6993 64.9746 43.8533 65.6933 50.158L67.5063 50.305C67.5716 50.8277 67.6043 51.285 67.6043 51.677C67.6043 52.0363 67.5553 52.4937 67.4573 53.049C66.314 53.0163 64.991 53 63.4883 53C61.9856 53 60.679 53.0163 59.5683 53.049C59.4703 52.559 59.4213 52.1343 59.4213 51.775C59.4213 51.383 59.454 50.893 59.5193 50.305L61.1363 50.158C61.2016 47.806 61.2343 45.1273 61.2343 42.122C61.2343 39.084 61.0873 34.87 60.7933 29.48C60.4666 30.166 59.65 31.832 58.3433 34.478C55.436 40.26 53.4433 44.523 52.3653 47.267C51.712 47.5283 51.0096 47.659 50.2583 47.659C49.5396 47.659 49.0496 47.6427 48.7883 47.61C47.645 44.866 46.0116 41.5503 43.8883 37.663C41.7976 33.743 40.5563 31.4237 40.1643 30.705C39.903 35.3437 39.7723 39.28 39.7723 42.514C39.7723 45.7153 39.805 48.2633 39.8703 50.158L41.6833 50.305C41.7486 50.8277 41.7813 51.285 41.7813 51.677C41.7813 52.0363 41.7323 52.4937 41.6343 53.049C40.589 53.0163 39.3803 53 38.0083 53C36.6363 53 35.444 53.0163 34.4313 53.049C34.3333 52.559 34.2843 52.1343 34.2843 51.775C34.2843 51.383 34.317 50.893 34.3823 50.305L36.0973 50.158C36.7833 44.2127 37.1263 37.173 37.1263 29.039C37.1263 27.471 37.0773 26.001 36.9793 24.629L35.1663 24.482C35.0683 24.0247 35.0193 23.5183 35.0193 22.963C35.0193 22.4077 35.0356 21.9993 35.0683 21.738C37.747 21.6727 39.7723 21.591 41.1443 21.493C41.6996 24.4983 44.999 31.5707 51.0423 42.71C56.0403 32.9427 58.964 25.8703 59.8133 21.493C61.022 21.591 63.2923 21.6727 66.6243 21.738ZM84.7072 32.861C84.6419 32.5343 84.6092 32.1097 84.6092 31.587C84.6092 31.0317 84.6582 30.5417 84.7562 30.117C85.7362 30.1497 87.0919 30.166 88.8232 30.166C90.5872 30.166 91.9429 30.1497 92.8902 30.117C92.9882 30.5417 93.0372 30.999 93.0372 31.489C93.0372 31.979 93.0045 32.4363 92.9392 32.861L91.4692 33.008C90.5872 35.3927 89.4439 38.6757 88.0392 42.857C86.6672 47.0383 85.6219 50.109 84.9032 52.069C84.2172 54.029 83.5639 55.6133 82.9432 56.822C82.3552 58.0307 81.7019 59.174 80.9832 60.252C79.6112 62.2773 77.9779 63.29 76.0832 63.29C74.2212 63.29 72.5062 62.7673 70.9382 61.722C71.0689 59.8273 71.6079 58.4717 72.5552 57.655C73.5352 58.9943 74.7275 59.664 76.1322 59.664C77.6349 59.664 79.3009 57.5407 81.1302 53.294C79.4642 47.4467 76.8345 40.6847 73.2412 33.008L71.6242 32.861C71.5589 32.469 71.5262 32.028 71.5262 31.538C71.5262 31.0153 71.5752 30.5417 71.6732 30.117C72.6205 30.1497 74.0252 30.166 75.8872 30.166C77.7819 30.166 79.2192 30.1497 80.1992 30.117C80.2972 30.5417 80.3462 31.0153 80.3462 31.538C80.3462 32.028 80.3135 32.469 80.2482 32.861L78.2392 33.008C78.8599 36.634 80.4605 41.485 83.0412 47.561H83.2372C84.8705 42.269 86.0465 37.418 86.7652 33.008L84.7072 32.861ZM98.8904 43.445C99.9031 43.445 100.687 43.7553 101.242 44.376C101.798 44.9967 102.075 45.7643 102.075 46.679C102.075 47.561 101.928 48.2797 101.634 48.835C103.072 50.011 104.721 50.599 106.583 50.599C108.478 50.599 109.899 50.1743 110.846 49.325C111.794 48.443 112.267 47.2507 112.267 45.748C112.267 44.2453 111.745 42.955 110.699 41.877C109.654 40.799 108.38 39.9007 106.877 39.182C105.407 38.4633 103.937 37.712 102.467 36.928C100.997 36.1113 99.7397 35.0333 98.6944 33.694C97.6491 32.3547 97.1264 30.7703 97.1264 28.941C97.1264 26.4257 97.9594 24.4657 99.6254 23.061C101.291 21.6237 103.431 20.905 106.044 20.905C108.658 20.905 110.912 21.5257 112.806 22.767C114.734 24.0083 115.697 25.6907 115.697 27.814C115.697 29.9047 114.848 30.95 113.149 30.95C112.137 30.95 111.353 30.6397 110.797 30.019C110.242 29.3983 109.964 28.598 109.964 27.618C109.964 26.638 110.16 25.8867 110.552 25.364C109.409 24.3187 108.004 23.796 106.338 23.796C104.672 23.796 103.415 24.2207 102.565 25.07C101.749 25.9193 101.34 26.981 101.34 28.255C101.34 29.529 101.716 30.6233 102.467 31.538C103.219 32.42 104.15 33.155 105.26 33.743C106.371 34.2983 107.58 34.9517 108.886 35.703C110.193 36.4217 111.402 37.1403 112.512 37.859C113.623 38.5777 114.554 39.5577 115.305 40.799C116.057 42.0077 116.432 43.396 116.432 44.964C116.432 47.5447 115.534 49.6517 113.737 51.285C111.973 52.9183 109.703 53.735 106.926 53.735C104.15 53.735 101.683 53.098 99.5274 51.824C97.4041 50.5173 96.3424 48.7043 96.3424 46.385C96.3424 44.425 97.1917 43.445 98.8904 43.445ZM142.719 61.33C138.44 61.33 135.206 58.782 133.017 53.686C128.052 53.3267 124.883 50.844 123.511 46.238C122.825 43.886 122.482 40.799 122.482 36.977C122.482 26.2623 126.484 20.905 134.487 20.905C142.523 20.905 146.541 26.2623 146.541 36.977C146.541 39.231 146.427 41.191 146.198 42.857C145.97 44.523 145.529 46.1727 144.875 47.806C143.601 51.04 140.972 52.951 136.986 53.539C138.228 56.4463 140.204 57.9 142.915 57.9C144.059 57.9 145.235 57.557 146.443 56.871C147.652 56.2177 148.681 55.3193 149.53 54.176C150.412 55.058 150.984 56.4463 151.245 58.341C148.795 60.3337 145.953 61.33 142.719 61.33ZM130.371 49.031C131.482 49.7497 132.854 50.109 134.487 50.109C136.153 50.109 137.542 49.7497 138.652 49.031C139.796 48.3123 140.645 47.2833 141.2 45.944C142.18 43.6247 142.67 40.652 142.67 37.026C142.67 28.206 139.943 23.796 134.487 23.796C129.065 23.796 126.353 28.206 126.353 37.026C126.353 43.3307 127.693 47.3323 130.371 49.031ZM155.684 50.158C155.978 45.65 156.125 40.897 156.125 35.899C156.125 30.901 155.978 27.0627 155.684 24.384L154.018 24.237C153.953 23.7143 153.92 23.2733 153.92 22.914C153.92 22.522 153.969 22.0483 154.067 21.493C155.21 21.5257 156.533 21.542 158.036 21.542C159.539 21.542 160.845 21.5257 161.956 21.493C162.054 21.983 162.103 22.424 162.103 22.816C162.103 23.1753 162.07 23.649 162.005 24.237L160.143 24.384C159.914 27.4547 159.8 31.685 159.8 37.075C159.8 42.4323 159.914 46.4993 160.143 49.276C161.156 49.374 162.626 49.423 164.553 49.423C166.513 49.423 167.999 49.3413 169.012 49.178L169.159 45.846C169.714 45.748 170.204 45.699 170.629 45.699C171.086 45.699 171.511 45.7153 171.903 45.748C172.001 48.2307 172.148 50.648 172.344 53L172.099 53.245C170.564 53.0817 167.444 53 162.74 53C158.036 53 155.129 53.0163 154.018 53.049C153.92 52.559 153.871 52.1343 153.871 51.775C153.871 51.383 153.904 50.893 153.969 50.305L155.684 50.158Z" fill="black"/>
</svg>
