<svg width="102" height="61" viewBox="0 0 102 61" fill="none" xmlns="http://www.w3.org/2000/svg">
<path fill-rule="evenodd" clip-rule="evenodd" d="M8.00485 48.301H10.8165V37.1624L15.2076 46.8739C15.705 48.0412 16.4195 48.4736 17.8031 48.4736C19.1866 48.4736 19.8585 48.0407 20.3724 46.8739L24.7416 37.1624V48.301H27.5751V37.1624C27.5751 36.0814 27.1422 35.5612 26.2338 35.28C24.0925 34.6314 22.6649 35.1937 22.0162 36.6422L17.7124 46.2456L13.5594 36.6422C12.9321 35.1937 11.4826 34.6314 9.32004 35.28C8.4329 35.5612 8.00048 36.0809 8.00048 37.1624L8 48.301H8.00485ZM29.9156 39.2387H32.7491V45.3599C32.7278 45.7056 32.8572 46.4846 34.3973 46.5054C35.1972 46.5272 40.4968 46.5054 40.5394 46.5054V39.195H43.3729V49.2095C43.3729 51.675 40.3188 52.2151 38.8956 52.2374H29.9854V50.3565H38.9183C40.7353 50.1616 40.5191 49.2536 40.5191 48.9506V48.2147H34.5273C31.7369 48.1929 29.9413 46.9601 29.9205 45.5543V39.2377L29.9156 39.2387ZM90.6936 32.144C88.9639 32.1004 87.622 32.2739 86.4974 32.75C86.1735 32.8809 85.6539 32.8809 85.6112 33.291C85.7843 33.4631 85.8051 33.7447 85.9568 33.9833C86.2162 34.4162 86.6709 34.9993 87.0815 35.3018C87.5362 35.6484 87.9905 35.9941 88.4655 36.2971C89.309 36.8158 90.2607 37.1188 91.0823 37.638C91.5584 37.9409 92.0339 38.3302 92.51 38.655C92.7524 38.8281 92.8993 39.1097 93.2023 39.2173V39.1519C93.051 38.958 93.0074 38.6768 92.8566 38.4596C92.6399 38.2439 92.4237 38.0486 92.207 37.8328C91.5802 36.9893 90.8012 36.2534 89.9577 35.6484C89.2654 35.1724 87.7519 34.5238 87.4708 33.7239L87.4281 33.6803C87.9032 33.6366 88.4655 33.4636 88.9203 33.3337C89.6561 33.1397 90.3261 33.1824 91.0823 32.988C91.429 32.9008 91.7746 32.7931 92.1212 32.685V32.4911C91.7319 32.1018 91.4508 31.5827 91.0402 31.2152C89.9373 30.2636 88.7254 29.3333 87.4708 28.5548C86.8003 28.1223 85.935 27.8407 85.2214 27.4737C84.9611 27.3438 84.5292 27.2788 84.3779 27.0626C83.9877 26.5876 83.772 25.9598 83.4908 25.397C82.864 24.2073 82.258 22.8883 81.7175 21.6337C81.3282 20.7902 81.0897 19.9467 80.6146 19.1681C78.3866 15.4911 75.9637 13.2636 72.2436 11.0787C71.4437 10.6245 70.4921 10.4291 69.4804 10.1916L67.8583 10.1043C67.5117 9.95305 67.1661 9.54197 66.8631 9.34709C65.6303 8.56854 62.4507 6.88153 61.5417 9.10955C60.9576 10.5154 62.407 11.8994 62.8991 12.6135C63.2675 13.1109 63.7426 13.6732 64.0029 14.2355C64.1483 14.603 64.1968 14.9928 64.3486 15.382C64.6942 16.3336 65.019 17.3938 65.4732 18.281C65.7156 18.7352 65.9701 19.2117 66.2731 19.6223C66.4462 19.8599 66.7492 19.9685 66.8136 20.3577C66.5106 20.7906 66.4898 21.4388 66.3167 21.9803C65.5377 24.4245 65.8407 27.4524 66.9436 29.247C67.2902 29.7875 68.107 30.9777 69.2152 30.5229C70.1886 30.1337 69.9714 28.9009 70.2526 27.8194C70.3181 27.56 70.2744 27.3869 70.4039 27.2134V27.257L71.291 29.0521C71.9614 30.1119 73.1297 31.2152 74.1027 31.9511C74.6214 32.3404 75.0325 33.0113 75.6811 33.2488V33.1834H75.6384C75.5085 32.9895 75.3136 32.9022 75.1406 32.751C74.7513 32.3617 74.3189 31.8856 74.0159 31.4532C73.1079 30.2423 72.3081 28.9009 71.594 27.5169C71.2474 26.8464 70.9444 26.111 70.6642 25.4406C70.5333 25.1807 70.5333 24.791 70.3176 24.662C69.9928 25.1371 69.5177 25.5492 69.2787 26.1328C68.8676 27.0626 68.825 28.2091 68.6737 29.3988C68.5864 29.4206 68.6252 29.3988 68.5865 29.4424C67.8952 29.2698 67.6567 28.5552 67.3973 27.9503C66.7487 26.4145 66.6401 23.9489 67.2024 22.1752C67.3537 21.7209 68.0033 20.2933 67.7439 19.8608C67.613 19.4498 67.1816 19.2122 66.9431 18.8874C66.6619 18.4763 66.3599 17.9576 66.165 17.5034C65.6463 16.2915 65.3869 14.9511 64.8241 13.7396C64.5638 13.1773 64.1101 12.5931 63.7421 12.0744C63.331 11.4903 62.8778 11.0792 62.553 10.3874C62.4449 10.1499 62.2936 9.76011 62.4667 9.50028C62.5093 9.32721 62.5966 9.26274 62.7687 9.21911C63.0499 8.98157 63.8507 9.28407 64.1319 9.41302C64.9317 9.73781 65.6022 10.0403 66.2726 10.4941C66.5756 10.7103 66.9004 11.1214 67.2897 11.2299H67.7444C68.4366 11.3812 69.2147 11.2736 69.8629 11.4675C71.0093 11.8359 72.0472 12.3759 72.978 12.9606C75.811 14.7557 78.1476 17.308 79.726 20.3582C79.9854 20.8556 80.0935 21.3098 80.332 21.829C80.7867 22.8892 81.3491 23.9703 81.8023 25.0091C82.257 26.0257 82.6895 27.0646 83.3381 27.9081C83.6629 28.3623 84.9601 28.5998 85.5438 28.8379C85.9767 29.0318 86.6467 29.2063 87.0369 29.4438C87.7718 29.8981 88.5072 30.4173 89.199 30.9146C89.5446 31.1735 90.6267 31.7145 90.6911 32.146L90.6936 32.144ZM68.6364 13.3484C68.3375 13.3458 68.0396 13.3821 67.7502 13.4565V13.5001H67.7929C67.9659 13.8463 68.2689 14.0843 68.4851 14.3873L68.983 15.4257L69.0257 15.382C69.3286 15.1658 69.4804 14.8197 69.4804 14.301C69.3505 14.1497 69.3291 13.998 69.221 13.8468C69.0911 13.6305 68.8099 13.522 68.6364 13.3494V13.3484Z" fill="#262626"/>
<path fill-rule="evenodd" clip-rule="evenodd" d="M45.5321 48.3008H53.6647C54.6163 48.3008 55.5252 48.1069 56.2601 47.7603C57.4929 47.1979 58.0771 46.4417 58.0771 45.4465V43.3702C58.0771 42.5703 57.4066 41.8126 56.0662 41.2939C55.374 41.0345 54.5086 40.8828 53.6651 40.8828H50.2475C49.101 40.8828 48.5605 40.5362 48.4087 39.7799C48.3874 39.6936 48.3874 39.6069 48.3874 39.5206V38.2442C48.3874 38.1787 48.3874 38.0929 48.4087 38.0066C48.56 37.4225 48.863 37.2708 49.8631 37.1631H58.19V35.2808H50.2737C49.1272 35.2808 48.5217 35.3462 47.9807 35.5193C46.315 36.038 45.5796 36.8601 45.5796 38.3087V39.9535C45.5796 41.2284 47.0073 42.3109 49.4297 42.5703C49.689 42.5921 49.9702 42.5921 50.2514 42.5921H53.1716C53.2797 42.5921 53.3874 42.5921 53.4737 42.6139C54.3608 42.7002 54.7501 42.8515 55.0094 43.1753C55.1825 43.3484 55.2261 43.5001 55.2261 43.695V45.3383C55.2261 45.5323 55.0962 45.7931 54.8368 46.0088C54.5775 46.2245 54.1654 46.3762 53.6249 46.3981C53.5168 46.3981 53.4528 46.4199 53.3437 46.4199H45.5321V48.3008ZM75.6826 45.0354C75.6826 46.9599 77.1369 48.041 80.031 48.2581C80.3121 48.2799 80.5715 48.3008 80.8527 48.3008H88.2067V46.4199H80.7882C79.1434 46.4199 78.5165 46.0088 78.5165 45.014V35.2808H75.6772V45.0358L75.6826 45.0354ZM59.8717 45.1212V38.4168C59.8717 36.7079 61.0827 35.6691 63.4411 35.3452C63.7004 35.3234 63.9598 35.3016 64.1973 35.3016H69.5609C69.842 35.3016 70.0805 35.3234 70.3617 35.3452C72.7191 35.6691 73.9083 36.7074 73.9083 38.4168V45.1212C73.9083 46.5052 73.4114 47.2411 72.2426 47.7389L75.0107 50.2472H71.7452L69.4959 48.2145L67.2242 48.3444H64.1964C63.6415 48.3417 63.0892 48.2692 62.5525 48.1287C60.7588 47.6304 59.8717 46.6792 59.8717 45.1212ZM62.9209 44.9709C62.9209 45.0572 62.9694 45.143 62.9864 45.2521C63.1376 46.0301 63.8725 46.463 64.9972 46.463H67.55L65.2144 44.3431H68.4798L70.5343 46.2037C70.9245 45.987 71.1621 45.684 71.2483 45.2947C71.2702 45.2084 71.2702 45.1008 71.2702 45.0135V38.5893C71.2702 38.503 71.2702 38.4172 71.2483 38.33C71.0971 37.5951 70.3622 37.1845 69.2588 37.1845H64.9977C63.7431 37.1845 62.9214 37.725 62.9214 38.5893L62.9209 44.9709Z" fill="black"/>
</svg>
