<svg width="1851" height="927" viewBox="0 0 1851 927" fill="none" xmlns="http://www.w3.org/2000/svg">
<rect width="1851" height="927" fill="#FFFAE5"/>
<path fill-rule="evenodd" clip-rule="evenodd" d="M465.835 548.438L488.319 533.141H617.598L640.081 548.438V591.27H465.835L465.835 548.438Z" fill="#F966FF"/>
<path fill-rule="evenodd" clip-rule="evenodd" d="M617.195 534.67L638.676 549.285V592.8H467.241V549.285L488.722 534.67H617.195Z" stroke="#10162F"/>
<path d="M484.103 575.972C486.432 575.972 488.319 573.918 488.319 571.383C488.319 568.849 486.432 566.794 484.103 566.794C481.775 566.794 479.888 568.849 479.888 571.383C479.888 573.918 481.775 575.972 484.103 575.972Z" fill="#10162F"/>
<path fill-rule="evenodd" clip-rule="evenodd" d="M596.52 566.794H621.814C624.142 566.794 626.029 568.849 626.029 571.383C626.029 573.918 624.142 575.972 621.814 575.972H596.52C594.192 575.972 592.304 573.918 592.304 571.383C592.304 568.849 594.192 566.794 596.52 566.794Z" fill="#10162F"/>
<path d="M500.966 575.972C503.294 575.972 505.181 573.918 505.181 571.383C505.181 568.849 503.294 566.794 500.966 566.794C498.637 566.794 496.75 568.849 496.75 571.383C496.75 573.918 498.637 575.972 500.966 575.972Z" fill="#10162F"/>
<path fill-rule="evenodd" clip-rule="evenodd" d="M489.357 534.829H616.867L638.791 550.203H467.013L489.357 534.829Z" fill="white"/>
<path d="M467.241 549.968H638.676" stroke="#10162F" stroke-linecap="square"/>
<path fill-rule="evenodd" clip-rule="evenodd" d="M465.835 493.368L488.319 478.07H617.598L640.081 493.368V536.2H465.835L465.835 493.368Z" fill="#F966FF"/>
<path fill-rule="evenodd" clip-rule="evenodd" d="M489.357 479.759H616.867L638.791 495.133H467.013L489.357 479.759Z" fill="white"/>
<path fill-rule="evenodd" clip-rule="evenodd" d="M617.195 479.6L638.676 494.215V537.729H467.241V494.215L488.722 479.6H617.195Z" stroke="#10162F"/>
<path d="M467.241 494.897H638.676" stroke="#10162F" stroke-linecap="square"/>
<path d="M484.103 520.903C486.432 520.903 488.319 518.848 488.319 516.314C488.319 513.779 486.432 511.725 484.103 511.725C481.775 511.725 479.888 513.779 479.888 516.314C479.888 518.848 481.775 520.903 484.103 520.903Z" fill="#10162F"/>
<path fill-rule="evenodd" clip-rule="evenodd" d="M465.835 438.297L488.319 423L617.598 423L640.081 438.297V481.13H465.835L465.835 438.297Z" fill="#F966FF"/>
<path fill-rule="evenodd" clip-rule="evenodd" d="M596.52 511.725H621.814C624.142 511.725 626.029 513.779 626.029 516.314C626.029 518.848 624.142 520.903 621.814 520.903H596.52C594.192 520.903 592.304 518.848 592.304 516.314C592.304 513.779 594.192 511.725 596.52 511.725Z" fill="#10162F"/>
<path fill-rule="evenodd" clip-rule="evenodd" d="M489.357 424.688H616.867L638.791 440.063H467.013L489.357 424.688Z" fill="white"/>
<path d="M500.966 520.903C503.294 520.903 505.181 518.848 505.181 516.314C505.181 513.779 503.294 511.725 500.966 511.725C498.637 511.725 496.75 513.779 496.75 516.314C496.75 518.848 498.637 520.903 500.966 520.903Z" fill="#10162F"/>
<path fill-rule="evenodd" clip-rule="evenodd" d="M617.195 424.529L638.676 439.145V482.659H467.241V439.145L488.722 424.529H617.195Z" stroke="#10162F"/>
<path d="M467.241 439.827H638.676" stroke="#10162F" stroke-linecap="square"/>
<path d="M484.103 465.832C486.432 465.832 488.319 463.777 488.319 461.243C488.319 458.708 486.432 456.653 484.103 456.653C481.775 456.653 479.888 458.708 479.888 461.243C479.888 463.777 481.775 465.832 484.103 465.832Z" fill="#10162F"/>
<path fill-rule="evenodd" clip-rule="evenodd" d="M596.52 456.653H621.814C624.142 456.653 626.029 458.708 626.029 461.243C626.029 463.777 624.142 465.832 621.814 465.832H596.52C594.192 465.832 592.304 463.777 592.304 461.243C592.304 458.708 594.192 456.653 596.52 456.653Z" fill="#10162F"/>
<path d="M500.966 465.832C503.294 465.832 505.181 463.777 505.181 461.243C505.181 458.708 503.294 456.653 500.966 456.653C498.637 456.653 496.75 458.708 496.75 461.243C496.75 463.777 498.637 465.832 500.966 465.832Z" fill="#10162F"/>
<path fill-rule="evenodd" clip-rule="evenodd" d="M132.448 535.366V569.724C132.448 571.914 133.211 574.023 134.583 575.625C145.256 588.094 161.525 594.329 183.389 594.329C205.253 594.329 221.533 588.095 232.231 575.626C233.606 574.023 234.371 571.911 234.371 569.718V535.366" fill="#F966FF"/>
<path d="M132.448 535.366V569.724C132.448 571.914 133.211 574.023 134.583 575.625C145.256 588.094 161.525 594.329 183.389 594.329C205.253 594.329 221.533 588.095 232.231 575.626C233.606 574.023 234.371 571.911 234.371 569.718V535.366" stroke="#10162F" stroke-width="0.589474" stroke-linejoin="round"/>
<path d="M183.389 560.396C211.646 560.396 234.553 549.19 234.553 535.367C234.553 521.544 211.646 510.338 183.389 510.338C155.132 510.338 132.225 521.544 132.225 535.367C132.225 549.19 155.132 560.396 183.389 560.396Z" fill="white" stroke="#10162F" stroke-width="0.589474"/>
<path fill-rule="evenodd" clip-rule="evenodd" d="M132.448 492.148V526.506C132.448 528.696 133.211 530.805 134.583 532.407C145.256 544.876 161.525 551.111 183.389 551.111C205.253 551.111 221.533 544.877 232.231 532.409C233.606 530.805 234.371 528.694 234.371 526.5V492.148" fill="#F966FF"/>
<path d="M132.448 492.148V526.506C132.448 528.696 133.211 530.805 134.583 532.407C145.256 544.876 161.525 551.111 183.389 551.111C205.253 551.111 221.533 544.877 232.231 532.409C233.606 530.805 234.371 528.694 234.371 526.5V492.148" stroke="#10162F" stroke-width="0.589474" stroke-linejoin="round"/>
<path d="M183.389 517.177C211.646 517.177 234.553 505.971 234.553 492.148C234.553 478.325 211.646 467.119 183.389 467.119C155.132 467.119 132.225 478.325 132.225 492.148C132.225 505.971 155.132 517.177 183.389 517.177Z" fill="white" stroke="#10162F" stroke-width="0.589474"/>
<path fill-rule="evenodd" clip-rule="evenodd" d="M132.448 448.931V483.288C132.448 485.478 133.211 487.587 134.583 489.19C145.256 501.659 161.525 507.893 183.389 507.893C205.253 507.893 221.533 501.659 232.231 489.191C233.606 487.588 234.371 485.476 234.371 483.282V448.931" fill="#F966FF"/>
<path d="M132.448 448.931V483.288C132.448 485.478 133.211 487.587 134.583 489.19C145.256 501.659 161.525 507.893 183.389 507.893C205.253 507.893 221.533 501.659 232.231 489.191C233.606 487.588 234.371 485.476 234.371 483.282V448.931" stroke="#10162F" stroke-width="0.589474" stroke-linejoin="round"/>
<path d="M183.389 473.96C211.646 473.96 234.553 462.754 234.553 448.93C234.553 435.107 211.646 423.901 183.389 423.901C155.132 423.901 132.225 435.107 132.225 448.93C132.225 462.754 155.132 473.96 183.389 473.96Z" fill="white" stroke="#10162F" stroke-width="0.589474"/>
<path d="M134.971 640.514C134.971 646.535 131.756 647.196 128.72 647.196H128.136V633.857H128.72C131.756 633.857 134.971 634.469 134.971 640.514ZM126 631.654V649.399H128.788C133.419 649.399 137.152 647.27 137.152 640.514C137.152 633.735 133.419 631.654 128.788 631.654H126Z" fill="#10162F"/>
<path d="M146.82 631.654H144.526L139.175 649.399H141.469L142.548 645.605H148.776L149.877 649.399H152.171L146.82 631.654ZM145.673 634.763L148.146 643.427H143.177L145.673 634.763Z" fill="#10162F"/>
<path d="M159.118 649.399H161.254V633.857H166.155V631.654H154.216V633.857H159.118V649.399Z" fill="#10162F"/>
<path d="M175.868 631.654H173.575L168.224 649.399H170.517L171.596 645.605H177.824L178.926 649.399H181.219L175.868 631.654ZM174.721 634.763L177.194 643.427H172.226L174.721 634.763Z" fill="#10162F"/>
<path d="M184.232 649.399H189.538C192.461 649.399 195.001 647.906 195.001 644.137C195.001 641.959 194.17 640.637 192.776 639.927C193.81 639.217 194.394 637.724 194.394 636.035C194.394 632.511 191.764 631.654 189.043 631.654H184.232V649.399ZM186.368 641.273H189.56C191.764 641.273 192.798 642.081 192.798 644.161C192.798 646.168 191.764 647.196 189.718 647.196H186.368V641.273ZM186.368 633.857H189.493C191.134 633.857 192.258 634.567 192.258 636.378C192.258 638.459 191.179 639.193 189.493 639.193H186.368V633.857Z" fill="#10162F"/>
<path d="M204.917 631.654H202.623L197.272 649.399H199.566L200.645 645.605H206.873L207.975 649.399H210.268L204.917 631.654ZM203.77 634.763L206.243 643.427H201.274L203.77 634.763Z" fill="#10162F"/>
<path d="M216.99 641.028L218.766 641.493C220.543 641.934 221.824 642.766 221.824 644.602C221.824 646.633 220.16 647.563 218.542 647.563C216.451 647.563 214.922 646.242 214.697 643.867H212.583C212.763 647.392 215.169 649.717 218.474 649.717C221.622 649.717 223.983 647.735 223.983 644.43C223.983 641.053 221.689 639.805 219.059 639.168L217.44 638.777C216.136 638.458 215.079 637.7 215.079 636.133C215.079 634.297 216.63 633.49 218.114 633.49C219.598 633.49 221.285 634.2 221.532 636.329H223.645C223.286 632.804 220.745 631.336 218.227 631.336C215.304 631.336 212.876 633.147 212.876 636.207C212.876 639.021 214.854 640.514 216.99 641.028Z" fill="#10162F"/>
<path d="M228.074 649.399H237.787V647.196H230.21V641.347H237.337V639.144H230.21V633.857H237.787V631.654H228.074V649.399Z" fill="#10162F"/>
<path fill-rule="evenodd" clip-rule="evenodd" d="M955.577 490.086C945.205 490.086 913 498.113 913 537.078C913 576.043 942.811 584.792 958.466 584.792C968.903 584.792 995.621 584.792 1038.62 584.792C1073.5 584.792 1100 584.792 1118.1 584.792C1145.25 584.792 1168.52 567.41 1168.52 535.251C1168.52 503.093 1145.25 480.795 1111.43 480.795C1111.43 471.155 1104.51 455.271 1090.9 448.33C1077.3 441.389 1060.64 445.474 1055.2 448.33C1053.49 437.083 1033.87 404.514 994.252 413.416C954.636 422.317 947.86 468.701 955.577 490.086Z" fill="white" stroke="#10162F"/>
<path d="M964.835 535.518V518.79H970.487C971.794 518.79 972.867 519.014 973.705 519.46C974.544 519.901 975.164 520.508 975.567 521.281C975.97 522.055 976.172 522.934 976.172 523.92C976.172 524.905 975.97 525.779 975.567 526.541C975.164 527.304 974.546 527.903 973.713 528.338C972.88 528.768 971.816 528.983 970.52 528.983H965.946V527.154H970.454C971.347 527.154 972.066 527.023 972.611 526.762C973.161 526.501 973.558 526.13 973.803 525.651C974.054 525.166 974.179 524.589 974.179 523.92C974.179 523.25 974.054 522.664 973.803 522.164C973.553 521.663 973.152 521.276 972.603 521.004C972.053 520.726 971.326 520.587 970.422 520.587H966.861V535.518H964.835ZM972.709 528.003L976.825 535.518H974.473L970.422 528.003H972.709ZM979.547 535.518V518.79H989.642V520.587H981.573V526.239H989.119V528.036H981.573V533.721H989.773V535.518H979.547ZM1002.44 522.972C1002.34 522.144 1001.95 521.502 1001.25 521.045C1000.55 520.587 999.697 520.358 998.684 520.358C997.943 520.358 997.295 520.478 996.74 520.718C996.19 520.957 995.76 521.287 995.449 521.706C995.144 522.125 994.992 522.602 994.992 523.135C994.992 523.582 995.098 523.966 995.311 524.287C995.528 524.603 995.806 524.867 996.144 525.079C996.481 525.286 996.835 525.458 997.205 525.594C997.576 525.725 997.916 525.831 998.226 525.912L999.925 526.37C1000.36 526.484 1000.85 526.642 1001.38 526.844C1001.92 527.045 1002.43 527.32 1002.92 527.669C1003.42 528.012 1003.83 528.453 1004.15 528.992C1004.47 529.531 1004.63 530.192 1004.63 530.976C1004.63 531.88 1004.39 532.697 1003.92 533.427C1003.45 534.156 1002.76 534.736 1001.86 535.166C1000.96 535.597 999.871 535.812 998.586 535.812C997.388 535.812 996.351 535.618 995.474 535.232C994.603 534.845 993.917 534.306 993.416 533.615C992.92 532.923 992.64 532.12 992.574 531.205H994.665C994.72 531.837 994.932 532.359 995.302 532.773C995.678 533.182 996.152 533.487 996.724 533.688C997.301 533.884 997.921 533.982 998.586 533.982C999.359 533.982 1000.05 533.857 1000.67 533.606C1001.28 533.35 1001.77 532.997 1002.13 532.545C1002.49 532.087 1002.67 531.554 1002.67 530.944C1002.67 530.388 1002.51 529.936 1002.2 529.588C1001.89 529.239 1001.49 528.956 1000.98 528.738C1000.47 528.521 999.925 528.33 999.337 528.167L997.279 527.579C995.972 527.203 994.938 526.667 994.175 525.97C993.413 525.273 993.032 524.361 993.032 523.233C993.032 522.297 993.285 521.48 993.791 520.783C994.303 520.081 994.989 519.536 995.85 519.15C996.715 518.758 997.682 518.562 998.749 518.562C999.827 518.562 1000.79 518.755 1001.62 519.142C1002.46 519.523 1003.13 520.045 1003.62 520.71C1004.11 521.374 1004.37 522.128 1004.4 522.972H1002.44ZM1007.05 520.587V518.79H1019.59V520.587H1014.33V535.518H1012.31V520.587H1007.05ZM1022.72 535.518V518.79H1032.75V520.587H1024.74V526.239H1032V528.036H1024.74V535.518H1022.72ZM1047.19 518.79H1049.22V529.866C1049.22 531.009 1048.95 532.03 1048.41 532.928C1047.88 533.821 1047.12 534.527 1046.15 535.044C1045.17 535.556 1044.03 535.812 1042.72 535.812C1041.41 535.812 1040.26 535.556 1039.29 535.044C1038.31 534.527 1037.56 533.821 1037.02 532.928C1036.48 532.03 1036.22 531.009 1036.22 529.866V518.79H1038.24V529.702C1038.24 530.519 1038.42 531.246 1038.78 531.883C1039.14 532.515 1039.65 533.013 1040.32 533.378C1040.99 533.737 1041.79 533.917 1042.72 533.917C1043.65 533.917 1044.45 533.737 1045.12 533.378C1045.79 533.013 1046.3 532.515 1046.65 531.883C1047.01 531.246 1047.19 530.519 1047.19 529.702V518.79ZM1053.26 535.518V518.79H1055.29V533.721H1063.06V535.518H1053.26ZM1073.36 535.518H1071.23L1077.37 518.79H1079.47L1085.61 535.518H1083.48L1078.49 521.437H1078.35L1073.36 535.518ZM1074.14 528.983H1082.7V530.78H1074.14V528.983ZM1088.21 535.518V518.79H1093.87C1095.18 518.79 1096.25 519.027 1097.08 519.501C1097.92 519.969 1098.54 520.604 1098.95 521.404C1099.35 522.204 1099.55 523.097 1099.55 524.083C1099.55 525.068 1099.35 525.964 1098.95 526.77C1098.55 527.576 1097.93 528.218 1097.1 528.698C1096.27 529.171 1095.2 529.408 1093.9 529.408H1089.85V527.611H1093.83C1094.73 527.611 1095.45 527.456 1096 527.146C1096.54 526.835 1096.94 526.416 1097.18 525.888C1097.43 525.354 1097.56 524.753 1097.56 524.083C1097.56 523.413 1097.43 522.814 1097.18 522.286C1096.94 521.758 1096.54 521.344 1095.99 521.045C1095.44 520.74 1094.71 520.587 1093.8 520.587H1090.24V535.518H1088.21ZM1104.84 518.79V535.518H1102.81V518.79H1104.84Z" fill="#10162F"/>
<path d="M488.746 643.184H486.43L484.632 652.142L483.44 637.774H481.304L482.923 655.519H485.711L487.6 646.267L489.488 655.519H492.254L493.895 637.774H491.759L490.545 652.142L488.746 643.184Z" fill="#10162F"/>
<path d="M497.38 655.519H507.093V653.316H499.516V647.467H506.643V645.264H499.516V639.977H507.093V637.774H497.38V655.519Z" fill="#10162F"/>
<path d="M511.634 655.519H516.94C519.863 655.519 522.404 654.026 522.404 650.257C522.404 648.079 521.572 646.757 520.178 646.047C521.212 645.337 521.797 643.844 521.797 642.156C521.797 638.631 519.166 637.774 516.446 637.774H511.634V655.519ZM513.77 647.393H516.963C519.166 647.393 520.2 648.201 520.2 650.281C520.2 652.288 519.166 653.316 517.12 653.316H513.77V647.393ZM513.77 639.977H516.895C518.537 639.977 519.661 640.687 519.661 642.498C519.661 644.579 518.582 645.313 516.895 645.313H513.77V639.977Z" fill="#10162F"/>
<path d="M544.393 647.148L546.169 647.613C547.945 648.054 549.226 648.886 549.226 650.722C549.226 652.753 547.563 653.683 545.944 653.683C543.853 653.683 542.324 652.362 542.099 649.988H539.986C540.166 653.512 542.571 655.837 545.876 655.837C549.024 655.837 551.385 653.855 551.385 650.551C551.385 647.173 549.092 645.925 546.461 645.288L544.842 644.897C543.538 644.578 542.481 643.82 542.481 642.253C542.481 640.418 544.033 639.61 545.517 639.61C547.001 639.61 548.687 640.32 548.934 642.449H551.048C550.688 638.925 548.147 637.456 545.629 637.456C542.706 637.456 540.278 639.267 540.278 642.327C540.278 645.141 542.257 646.634 544.393 647.148Z" fill="#10162F"/>
<path d="M555.477 655.519H565.189V653.316H557.612V647.467H564.74V645.264H557.612V639.977H565.189V637.774H555.477V655.519Z" fill="#10162F"/>
<path d="M578.297 655.519H580.726L577.263 647.589C579.039 646.977 580.208 645.607 580.208 642.841C580.208 638.607 577.466 637.774 573.913 637.774H569.934V655.519H572.07V648.054H573.913C574.318 648.054 574.723 648.054 575.105 648.03L578.297 655.519ZM574.16 639.977C576.319 639.977 578.005 640.149 578.005 642.89C578.005 645.631 576.319 645.851 574.16 645.851H572.07V639.977H574.16Z" fill="#10162F"/>
<path d="M588.122 655.519H590.393L595.519 637.774H593.226L589.246 652.411L585.289 637.774H582.996L588.122 655.519Z" fill="#10162F"/>
<path d="M599.049 655.519H608.762V653.316H601.185V647.467H608.312V645.264H601.185V639.977H608.762V637.774H599.049V655.519Z" fill="#10162F"/>
<path d="M621.87 655.519H624.298L620.836 647.589C622.612 646.977 623.781 645.607 623.781 642.841C623.781 638.607 621.038 637.774 617.486 637.774H613.506V655.519H615.642V648.054H617.486C617.891 648.054 618.295 648.054 618.678 648.03L621.87 655.519ZM617.733 639.977C619.892 639.977 621.578 640.149 621.578 642.89C621.578 645.631 619.892 645.851 617.733 645.851H615.642V639.977H617.733Z" fill="#10162F"/>
<path d="M1492.51 643.356H1490.17L1488.36 652.396L1487.16 637.897H1485L1486.64 655.805H1489.45L1491.35 646.468L1493.26 655.805H1496.05L1497.71 637.897H1495.55L1494.33 652.396L1492.51 643.356Z" fill="#10162F"/>
<path d="M1502.22 655.805H1512.03V653.582H1504.38V647.679H1511.57V645.456H1504.38V640.12H1512.03V637.897H1502.22V655.805Z" fill="#10162F"/>
<path d="M1517.61 655.805H1522.96C1525.91 655.805 1528.48 654.298 1528.48 650.494C1528.48 648.296 1527.64 646.962 1526.23 646.246C1527.27 645.53 1527.86 644.023 1527.86 642.319C1527.86 638.762 1525.21 637.897 1522.46 637.897H1517.61V655.805ZM1519.76 647.604H1522.99C1525.21 647.604 1526.25 648.42 1526.25 650.519C1526.25 652.544 1525.21 653.582 1523.15 653.582H1519.76V647.604ZM1519.76 640.12H1522.92C1524.57 640.12 1525.71 640.837 1525.71 642.665C1525.71 644.764 1524.62 645.505 1522.92 645.505H1519.76V640.12Z" fill="#10162F"/>
<path d="M1536.01 647.357L1537.8 647.827C1539.59 648.271 1540.89 649.111 1540.89 650.963C1540.89 653.014 1539.21 653.952 1537.58 653.952C1535.47 653.952 1533.92 652.618 1533.7 650.222H1531.56C1531.74 653.779 1534.17 656.126 1537.51 656.126C1540.68 656.126 1543.07 654.125 1543.07 650.791C1543.07 647.382 1540.75 646.122 1538.1 645.48L1536.46 645.085C1535.15 644.764 1534.08 643.998 1534.08 642.417C1534.08 640.565 1535.65 639.75 1537.14 639.75C1538.64 639.75 1540.34 640.466 1540.59 642.615H1542.73C1542.36 639.058 1539.8 637.576 1537.26 637.576C1534.31 637.576 1531.86 639.404 1531.86 642.491C1531.86 645.332 1533.85 646.839 1536.01 647.357Z" fill="#10162F"/>
<path d="M1546.74 640.12H1550.89V653.582H1546.74V655.805H1557.2V653.582H1553.05V640.12H1557.2V637.897H1546.74V640.12Z" fill="#10162F"/>
<path d="M1565.55 655.805H1567.71V640.12H1572.65V637.897H1560.61V640.12H1565.55V655.805Z" fill="#10162F"/>
<path d="M1576.51 655.805H1586.31V653.582H1578.67V647.679H1585.86V645.456H1578.67V640.12H1586.31V637.897H1576.51V655.805Z" fill="#10162F"/>
<path d="M1462.55 668.772H1460.24L1454.84 686.68H1457.15L1458.24 682.851H1464.53L1465.64 686.68H1467.95L1462.55 668.772ZM1461.4 671.909L1463.89 680.653H1458.88L1461.4 671.909Z" fill="#10162F"/>
<path d="M1471.47 668.772V686.68H1473.63V679.789H1475.51C1479.12 679.789 1481.89 678.726 1481.89 674.281C1481.89 669.835 1479.12 668.772 1475.51 668.772H1471.47ZM1475.78 670.995C1477.98 670.995 1479.66 671.366 1479.66 674.281C1479.66 677.195 1477.98 677.566 1475.78 677.566H1473.63V670.995H1475.78Z" fill="#10162F"/>
<path d="M1486.13 668.772V686.68H1488.28V679.789H1490.17C1493.77 679.789 1496.54 678.726 1496.54 674.281C1496.54 669.835 1493.77 668.772 1490.17 668.772H1486.13ZM1490.44 670.995C1492.64 670.995 1494.32 671.366 1494.32 674.281C1494.32 677.195 1492.64 677.566 1490.44 677.566H1488.28V670.995H1490.44Z" fill="#10162F"/>
<path d="M1503.03 668.772H1500.88V686.68H1511.11V684.457H1503.03V668.772Z" fill="#10162F"/>
<path d="M1514.78 670.995H1518.94V684.457H1514.78V686.68H1525.24V684.457H1521.09V670.995H1525.24V668.772H1514.78V670.995Z" fill="#10162F"/>
<path d="M1538.31 681.122C1538.02 683.271 1536.97 684.827 1534.89 684.827C1532.37 684.827 1531.08 682.11 1531.08 677.689C1531.08 673.12 1532.46 670.625 1534.84 670.625C1536.93 670.625 1537.95 672.403 1538.22 674.454H1540.42C1539.88 670.823 1537.75 668.427 1534.91 668.427C1530.98 668.427 1528.85 672.132 1528.85 677.689C1528.85 683.123 1530.74 687.001 1534.75 687.001C1537.72 687.001 1539.9 684.951 1540.47 681.122H1538.31Z" fill="#10162F"/>
<path d="M1550.5 668.772H1548.18L1542.78 686.68H1545.1L1546.19 682.851H1552.47L1553.58 686.68H1555.9L1550.5 668.772ZM1549.34 671.909L1551.84 680.653H1546.82L1549.34 671.909Z" fill="#10162F"/>
<path d="M1562.91 686.68H1565.06V670.995H1570.01V668.772H1557.96V670.995H1562.91V686.68Z" fill="#10162F"/>
<path d="M1573.41 670.995H1577.57V684.457H1573.41V686.68H1583.87V684.457H1579.72V670.995H1583.87V668.772H1573.41V670.995Z" fill="#10162F"/>
<path d="M1593.31 668.451C1589.21 668.451 1587.16 672.304 1587.16 677.714C1587.16 683.098 1589.21 687.001 1593.31 687.001C1597.42 687.001 1599.46 683.098 1599.46 677.714C1599.46 672.304 1597.42 668.451 1593.31 668.451ZM1593.31 670.625C1596.03 670.625 1597.24 673.194 1597.24 677.714C1597.24 682.234 1596.03 684.827 1593.31 684.827C1590.61 684.827 1589.39 682.234 1589.39 677.714C1589.39 673.194 1590.61 670.625 1593.31 670.625Z" fill="#10162F"/>
<path d="M1613.28 686.68V668.772H1611.12V684.012L1605.86 668.772H1602.64V686.68H1604.79V671.391L1610.06 686.68H1613.28Z" fill="#10162F"/>
<path d="M1390.04 543.111H1229.8" stroke="#10162F" stroke-linecap="round" stroke-linejoin="round"/>
<path d="M1259.58 510.692L1229.8 543.111L1259.58 575.529" stroke="#10162F" stroke-linecap="round" stroke-linejoin="round"/>
<path d="M1231.21 453.573H1391.46" stroke="#10162F" stroke-linecap="round" stroke-linejoin="round"/>
<path d="M1361.68 485.992L1391.46 453.574L1361.68 421.155" stroke="#10162F" stroke-linecap="round" stroke-linejoin="round"/>
<path d="M832.595 553.027H673.806" stroke="#10162F" stroke-linecap="round" stroke-linejoin="round"/>
<path d="M703.316 520.903L673.806 553.027L703.316 585.151" stroke="#10162F" stroke-linecap="round" stroke-linejoin="round"/>
<path d="M675.212 464.302H834" stroke="#10162F" stroke-linecap="round" stroke-linejoin="round"/>
<path d="M804.491 496.426L834 464.302L804.491 432.178" stroke="#10162F" stroke-linecap="round" stroke-linejoin="round"/>
<path d="M427.895 553.027H269.106" stroke="#10162F" stroke-linecap="round" stroke-linejoin="round"/>
<path d="M298.616 520.903L269.106 553.027L298.616 585.151" stroke="#10162F" stroke-linecap="round" stroke-linejoin="round"/>
<path d="M270.512 464.302H429.3" stroke="#10162F" stroke-linecap="round" stroke-linejoin="round"/>
<path d="M399.791 496.426L429.3 464.302L399.791 432.178" stroke="#10162F" stroke-linecap="round" stroke-linejoin="round"/>
<path fill-rule="evenodd" clip-rule="evenodd" d="M1604.17 398C1606.91 398 1609.39 399.21 1611.19 401.165C1612.98 403.121 1614.09 405.822 1614.09 408.806V538.48C1614.09 541.464 1612.98 544.166 1611.19 546.121C1609.39 548.077 1606.91 549.286 1604.17 549.286H1436.84C1434.09 549.286 1431.61 548.077 1429.82 546.121C1428.02 544.166 1426.91 541.464 1426.91 538.48V408.806C1426.91 405.822 1428.02 403.121 1429.82 401.165C1431.61 399.21 1434.09 398 1436.84 398H1604.17Z" fill="white" stroke="#10162F"/>
<path fill-rule="evenodd" clip-rule="evenodd" d="M1604.17 404.175C1605.34 404.175 1606.41 404.693 1607.18 405.531C1607.95 406.369 1608.42 407.527 1608.42 408.806V538.48C1608.42 539.759 1607.95 540.917 1607.18 541.755C1606.41 542.593 1605.34 543.111 1604.17 543.111H1436.84C1435.66 543.111 1434.6 542.593 1433.83 541.755C1433.06 540.917 1432.58 539.759 1432.58 538.48V408.806C1432.58 407.527 1433.06 406.369 1433.83 405.531C1434.6 404.693 1435.66 404.175 1436.84 404.175H1604.17Z" fill="#F966FF" stroke="#10162F"/>
<path fill-rule="evenodd" clip-rule="evenodd" d="M1503.98 468.91C1501.76 468.91 1494.86 470.63 1494.86 478.98C1494.86 487.329 1501.25 489.204 1504.6 489.204C1506.84 489.204 1512.56 489.204 1521.78 489.204C1529.25 489.204 1534.93 489.204 1538.81 489.204C1544.63 489.204 1549.61 485.479 1549.61 478.588C1549.61 471.697 1544.63 466.919 1537.38 466.919C1537.38 464.853 1535.9 461.449 1532.98 459.962C1530.07 458.475 1526.5 459.35 1525.33 459.962C1524.96 457.552 1520.76 450.573 1512.27 452.48C1503.78 454.388 1502.33 464.327 1503.98 468.91Z" fill="white" stroke="#10162F"/>
<path fill-rule="evenodd" clip-rule="evenodd" d="M1567.32 578.408L1538.95 566.77V549.286H1499.23V566.77L1470.87 578.408V583.578H1567.32V578.408Z" fill="white" stroke="#10162F"/>
<path d="M1633.38 462.838H1591.97C1586.96 462.838 1582.9 467.261 1582.9 472.718V573.37C1582.9 578.826 1586.96 583.249 1591.97 583.249H1633.38C1638.39 583.249 1642.46 578.826 1642.46 573.37V472.718C1642.46 467.261 1638.39 462.838 1633.38 462.838Z" fill="white" stroke="#10162F"/>
<path fill-rule="evenodd" clip-rule="evenodd" d="M1633.66 469.013C1634.53 469.013 1635.31 469.393 1635.87 470.007C1636.43 470.622 1636.78 471.471 1636.78 472.409V573.678C1636.78 574.616 1636.43 575.465 1635.87 576.08C1635.31 576.694 1634.53 577.074 1633.66 577.074H1591.69C1590.83 577.074 1590.05 576.694 1589.48 576.08C1588.92 575.465 1588.57 574.616 1588.57 573.678V472.409C1588.57 471.471 1588.92 470.622 1589.48 470.007C1590.05 469.393 1590.83 469.013 1591.69 469.013H1633.66Z" fill="#F966FF" stroke="#10162F"/>
<path fill-rule="evenodd" clip-rule="evenodd" d="M1601.76 522.19C1600.54 522.19 1596.76 523.117 1596.76 527.615C1596.76 532.113 1600.26 533.123 1602.1 533.123C1603.33 533.123 1606.47 533.123 1611.53 533.123C1615.63 533.123 1618.74 533.123 1620.87 533.123C1624.06 533.123 1626.8 531.116 1626.8 527.404C1626.8 523.692 1624.06 521.118 1620.09 521.118C1620.09 520.005 1619.27 518.171 1617.67 517.37C1616.08 516.569 1614.12 517.041 1613.48 517.37C1613.28 516.072 1610.97 512.312 1606.31 513.34C1601.65 514.367 1600.86 519.722 1601.76 522.19Z" fill="white" stroke="#10162F"/>
<path d="M574.072 250.448C571.128 250.448 568.483 249.936 566.136 248.912C563.832 247.845 562.019 246.395 560.696 244.56C559.373 242.683 558.691 240.528 558.648 238.096H564.856C565.069 240.187 565.923 241.957 567.416 243.408C568.952 244.816 571.171 245.52 574.072 245.52C576.845 245.52 579.021 244.837 580.6 243.472C582.221 242.064 583.032 240.272 583.032 238.096C583.032 236.389 582.563 235.003 581.624 233.936C580.685 232.869 579.512 232.059 578.104 231.504C576.696 230.949 574.797 230.352 572.408 229.712C569.464 228.944 567.096 228.176 565.304 227.408C563.555 226.64 562.04 225.445 560.76 223.824C559.523 222.16 558.904 219.941 558.904 217.168C558.904 214.736 559.523 212.581 560.76 210.704C561.997 208.827 563.725 207.376 565.944 206.352C568.205 205.328 570.787 204.816 573.688 204.816C577.869 204.816 581.283 205.861 583.928 207.952C586.616 210.043 588.131 212.816 588.472 216.272H582.072C581.859 214.565 580.963 213.072 579.384 211.792C577.805 210.469 575.715 209.808 573.112 209.808C570.68 209.808 568.696 210.448 567.16 211.728C565.624 212.965 564.856 214.715 564.856 216.976C564.856 218.597 565.304 219.92 566.2 220.944C567.139 221.968 568.269 222.757 569.592 223.312C570.957 223.824 572.856 224.421 575.288 225.104C578.232 225.915 580.6 226.725 582.392 227.536C584.184 228.304 585.72 229.52 587 231.184C588.28 232.805 588.92 235.024 588.92 237.84C588.92 240.016 588.344 242.064 587.192 243.984C586.04 245.904 584.333 247.461 582.072 248.656C579.811 249.851 577.144 250.448 574.072 250.448ZM617.715 250.448C613.576 250.448 609.8 249.488 606.387 247.568C602.973 245.605 600.264 242.896 598.259 239.44C596.296 235.941 595.315 232.016 595.315 227.664C595.315 223.312 596.296 219.408 598.259 215.952C600.264 212.453 602.973 209.744 606.387 207.824C609.8 205.861 613.576 204.88 617.715 204.88C621.896 204.88 625.693 205.861 629.107 207.824C632.52 209.744 635.208 212.432 637.171 215.888C639.133 219.344 640.115 223.269 640.115 227.664C640.115 232.059 639.133 235.984 637.171 239.44C635.208 242.896 632.52 245.605 629.107 247.568C625.693 249.488 621.896 250.448 617.715 250.448ZM617.715 245.392C620.829 245.392 623.624 244.667 626.099 243.216C628.616 241.765 630.579 239.696 631.987 237.008C633.437 234.32 634.163 231.205 634.163 227.664C634.163 224.08 633.437 220.965 631.987 218.32C630.579 215.632 628.637 213.563 626.163 212.112C623.688 210.661 620.872 209.936 617.715 209.936C614.557 209.936 611.741 210.661 609.267 212.112C606.792 213.563 604.829 215.632 603.379 218.32C601.971 220.965 601.267 224.08 601.267 227.664C601.267 231.205 601.971 234.32 603.379 237.008C604.829 239.696 606.792 241.765 609.267 243.216C611.784 244.667 614.6 245.392 617.715 245.392ZM645.627 227.664C645.627 223.312 646.608 219.408 648.571 215.952C650.534 212.453 653.2 209.723 656.571 207.76C659.984 205.797 663.76 204.816 667.899 204.816C672.763 204.816 677.008 205.989 680.635 208.336C684.262 210.683 686.907 214.011 688.571 218.32H681.595C680.358 215.632 678.566 213.563 676.219 212.112C673.915 210.661 671.142 209.936 667.899 209.936C664.784 209.936 661.99 210.661 659.515 212.112C657.04 213.563 655.099 215.632 653.691 218.32C652.283 220.965 651.579 224.08 651.579 227.664C651.579 231.205 652.283 234.32 653.691 237.008C655.099 239.653 657.04 241.701 659.515 243.152C661.99 244.603 664.784 245.328 667.899 245.328C671.142 245.328 673.915 244.624 676.219 243.216C678.566 241.765 680.358 239.696 681.595 237.008H688.571C686.907 241.275 684.262 244.581 680.635 246.928C677.008 249.232 672.763 250.384 667.899 250.384C663.76 250.384 659.984 249.424 656.571 247.504C653.2 245.541 650.534 242.832 648.571 239.376C646.608 235.92 645.627 232.016 645.627 227.664ZM703.065 205.392V250H697.241V205.392H703.065ZM739.359 240.08H719.903L716.319 250H710.174L726.303 205.648H733.023L749.087 250H742.943L739.359 240.08ZM737.695 235.344L729.631 212.816L721.567 235.344H737.695ZM761.94 245.264H777.556V250H756.116V205.392H761.94V245.264ZM846.051 205.712V250H840.227V216.976L825.507 250H821.411L806.627 216.912V250H800.803V205.712H807.075L823.459 242.32L839.843 205.712H846.051ZM861.752 210.128V225.04H878.008V229.84H861.752V245.2H879.928V250H855.928V205.328H879.928V210.128H861.752ZM902.628 205.392C907.493 205.392 911.695 206.309 915.237 208.144C918.821 209.936 921.551 212.517 923.429 215.888C925.349 219.259 926.309 223.227 926.309 227.792C926.309 232.357 925.349 236.325 923.429 239.696C921.551 243.024 918.821 245.584 915.237 247.376C911.695 249.125 907.493 250 902.628 250H888.741V205.392H902.628ZM902.628 245.2C908.389 245.2 912.783 243.685 915.812 240.656C918.842 237.584 920.357 233.296 920.357 227.792C920.357 222.245 918.821 217.915 915.749 214.8C912.719 211.685 908.346 210.128 902.628 210.128H894.565V245.2H902.628ZM939.815 205.392V250H933.991V205.392H939.815ZM976.109 240.08H956.653L953.069 250H946.924L963.053 205.648H969.773L985.837 250H979.693L976.109 240.08ZM974.445 235.344L966.381 212.816L958.317 235.344H974.445ZM1033.42 250L1022.79 231.76H1015.75V250H1009.93V205.392H1024.33C1027.7 205.392 1030.54 205.968 1032.84 207.12C1035.19 208.272 1036.94 209.829 1038.09 211.792C1039.24 213.755 1039.82 215.995 1039.82 218.512C1039.82 221.584 1038.92 224.293 1037.13 226.64C1035.38 228.987 1032.73 230.544 1029.19 231.312L1040.39 250H1033.42ZM1015.75 227.088H1024.33C1027.49 227.088 1029.85 226.32 1031.43 224.784C1033.01 223.205 1033.8 221.115 1033.8 218.512C1033.8 215.867 1033.01 213.819 1031.43 212.368C1029.9 210.917 1027.53 210.192 1024.33 210.192H1015.75V227.088ZM1054.69 210.128V225.04H1070.95V229.84H1054.69V245.2H1072.87V250H1048.87V205.328H1072.87V210.128H1054.69ZM1095.82 250.448C1092.88 250.448 1090.23 249.936 1087.89 248.912C1085.58 247.845 1083.77 246.395 1082.45 244.56C1081.12 242.683 1080.44 240.528 1080.4 238.096H1086.61C1086.82 240.187 1087.67 241.957 1089.17 243.408C1090.7 244.816 1092.92 245.52 1095.82 245.52C1098.6 245.52 1100.77 244.837 1102.35 243.472C1103.97 242.064 1104.78 240.272 1104.78 238.096C1104.78 236.389 1104.31 235.003 1103.37 233.936C1102.44 232.869 1101.26 232.059 1099.85 231.504C1098.45 230.949 1096.55 230.352 1094.16 229.712C1091.21 228.944 1088.85 228.176 1087.05 227.408C1085.3 226.64 1083.79 225.445 1082.51 223.824C1081.27 222.16 1080.65 219.941 1080.65 217.168C1080.65 214.736 1081.27 212.581 1082.51 210.704C1083.75 208.827 1085.48 207.376 1087.69 206.352C1089.96 205.328 1092.54 204.816 1095.44 204.816C1099.62 204.816 1103.03 205.861 1105.68 207.952C1108.37 210.043 1109.88 212.816 1110.22 216.272H1103.82C1103.61 214.565 1102.71 213.072 1101.13 211.792C1099.56 210.469 1097.46 209.808 1094.86 209.808C1092.43 209.808 1090.45 210.448 1088.91 211.728C1087.37 212.965 1086.61 214.715 1086.61 216.976C1086.61 218.597 1087.05 219.92 1087.95 220.944C1088.89 221.968 1090.02 222.757 1091.34 223.312C1092.71 223.824 1094.61 224.421 1097.04 225.104C1099.98 225.915 1102.35 226.725 1104.14 227.536C1105.93 228.304 1107.47 229.52 1108.75 231.184C1110.03 232.805 1110.67 235.024 1110.67 237.84C1110.67 240.016 1110.09 242.064 1108.94 243.984C1107.79 245.904 1106.08 247.461 1103.82 248.656C1101.56 249.851 1098.89 250.448 1095.82 250.448ZM1146.7 205.392V210.128H1134.54V250H1128.71V210.128H1116.49V205.392H1146.7ZM1197.3 240.08H1177.84L1174.26 250H1168.11L1184.24 205.648H1190.96L1207.02 250H1200.88L1197.3 240.08ZM1195.63 235.344L1187.57 212.816L1179.5 235.344H1195.63ZM1243.88 218.448C1243.88 222.16 1242.6 225.253 1240.04 227.728C1237.52 230.16 1233.66 231.376 1228.45 231.376H1219.88V250H1214.05V205.392H1228.45C1233.49 205.392 1237.31 206.608 1239.91 209.04C1242.55 211.472 1243.88 214.608 1243.88 218.448ZM1228.45 226.576C1231.7 226.576 1234.09 225.872 1235.62 224.464C1237.16 223.056 1237.93 221.051 1237.93 218.448C1237.93 212.944 1234.77 210.192 1228.45 210.192H1219.88V226.576H1228.45ZM1256.94 205.392V250H1251.12V205.392H1256.94Z" fill="black"/>
</svg>
